<svg width="32" height="32" viewBox="0 0 32 32" fill="none" xmlns="http://www.w3.org/2000/svg">
<path d="M16.0333 28C15.6555 28 15.3388 27.8722 15.0833 27.6167C14.8277 27.3611 14.7 27.0444 14.7 26.6667V25.1333C13.7 24.9111 12.8222 24.5222 12.0666 23.9667C11.3111 23.4111 10.7 22.6333 10.2333 21.6333C10.0777 21.3222 10.0722 20.9944 10.2166 20.65C10.3611 20.3056 10.6222 20.0556 11 19.9C11.3111 19.7667 11.6333 19.7722 11.9666 19.9167C12.3 20.0611 12.5555 20.3 12.7333 20.6333C13.1111 21.3 13.5888 21.8056 14.1666 22.15C14.7444 22.4944 15.4555 22.6667 16.3 22.6667C17.2111 22.6667 17.9833 22.4611 18.6166 22.05C19.25 21.6389 19.5666 21 19.5666 20.1333C19.5666 19.3556 19.3222 18.7389 18.8333 18.2833C18.3444 17.8278 17.2111 17.3111 15.4333 16.7333C13.5222 16.1333 12.2111 15.4167 11.5 14.5833C10.7888 13.75 10.4333 12.7333 10.4333 11.5333C10.4333 10.0889 10.9 8.96667 11.8333 8.16667C12.7666 7.36667 13.7222 6.91111 14.7 6.8V5.33333C14.7 4.95556 14.8277 4.63889 15.0833 4.38333C15.3388 4.12778 15.6555 4 16.0333 4C16.4111 4 16.7277 4.12778 16.9833 4.38333C17.2388 4.63889 17.3666 4.95556 17.3666 5.33333V6.8C18.2111 6.93333 18.9444 7.20556 19.5666 7.61667C20.1888 8.02778 20.7 8.53333 21.1 9.13333C21.3 9.42222 21.3388 9.74444 21.2166 10.1C21.0944 10.4556 20.8444 10.7111 20.4666 10.8667C20.1555 11 19.8333 11.0056 19.5 10.8833C19.1666 10.7611 18.8555 10.5444 18.5666 10.2333C18.2777 9.92222 17.9388 9.68333 17.55 9.51667C17.1611 9.35 16.6777 9.26667 16.1 9.26667C15.1222 9.26667 14.3777 9.48333 13.8666 9.91667C13.3555 10.35 13.1 10.8889 13.1 11.5333C13.1 12.2667 13.4333 12.8444 14.1 13.2667C14.7666 13.6889 15.9222 14.1333 17.5666 14.6C19.1 15.0444 20.2611 15.75 21.05 16.7167C21.8388 17.6833 22.2333 18.8 22.2333 20.0667C22.2333 21.6444 21.7666 22.8444 20.8333 23.6667C19.9 24.4889 18.7444 25 17.3666 25.2V26.6667C17.3666 27.0444 17.2388 27.3611 16.9833 27.6167C16.7277 27.8722 16.4111 28 16.0333 28Z" fill="#F7D10C"/>
</svg>
