<svg width="24" height="24" viewBox="0 0 24 24" fill="none" xmlns="http://www.w3.org/2000/svg">
<path d="M20.0005 3.99957H3.99969C2.90049 3.99957 2.01009 4.89957 2.01009 5.99997L2.00049 18C2.00049 19.1004 2.90049 20.0004 3.99969 20.0004H20.0005C21.0997 20.0004 21.9997 19.1004 21.9997 18V5.99997C21.9997 4.89957 21.0997 3.99957 20.0005 3.99957ZM19.5997 8.24997L12.5305 12.6708C12.371 12.769 12.1874 12.821 12.0001 12.821C11.8128 12.821 11.6292 12.769 11.4697 12.6708L4.40049 8.24997C4.30161 8.19298 4.21523 8.11665 4.14651 8.02554C4.07778 7.93443 4.02811 7.83041 4.00047 7.71969C3.97282 7.60896 3.96777 7.4938 3.98561 7.38108C4.00345 7.26836 4.04382 7.16039 4.10431 7.06361C4.16479 6.96683 4.24416 6.88323 4.33766 6.8178C4.43116 6.75237 4.53689 6.70645 4.64854 6.68277C4.76018 6.6591 4.87545 6.65816 4.98746 6.68002C5.09947 6.70187 5.20593 6.74607 5.30049 6.80997L12.0001 11.0004L18.6997 6.80997C18.7942 6.74607 18.9007 6.70187 19.0127 6.68002C19.1247 6.65816 19.24 6.6591 19.3516 6.68277C19.4633 6.70645 19.569 6.75237 19.6625 6.8178C19.756 6.88323 19.8354 6.96683 19.8959 7.06361C19.9564 7.16039 19.9967 7.26836 20.0146 7.38108C20.0324 7.4938 20.0274 7.60896 19.9997 7.71969C19.9721 7.83041 19.9224 7.93443 19.8537 8.02554C19.7849 8.11665 19.6986 8.19298 19.5997 8.24997Z" fill="#F7D10C"/>
</svg>
