<svg width="256" height="256" viewBox="0 0 256 256" fill="none" xmlns="http://www.w3.org/2000/svg">
<path d="M128 144C115.911 144 104.933 147.422 95.0668 154.267C85.2002 161.111 78.0446 170.133 73.6002 181.333H182.4C177.956 170.133 170.8 161.111 160.933 154.267C151.067 147.422 140.089 144 128 144ZM83.2002 128L94.9335 116.8L106.133 128L117.333 116.8L106.133 105.6L117.333 93.8668L106.133 82.6668L94.9335 93.8668L83.2002 82.6668L72.0002 93.8668L83.2002 105.6L72.0002 116.8L83.2002 128ZM149.867 128L161.067 116.8L172.8 128L184 116.8L172.8 105.6L184 93.8668L172.8 82.6668L161.067 93.8668L149.867 82.6668L138.667 93.8668L149.867 105.6L138.667 116.8L149.867 128ZM128 234.667C113.245 234.667 99.3779 231.867 86.4002 226.267C73.4224 220.667 62.1335 213.067 52.5335 203.467C42.9335 193.867 35.3335 182.578 29.7335 169.6C24.1335 156.622 21.3335 142.756 21.3335 128C21.3335 113.245 24.1335 99.3779 29.7335 86.4002C35.3335 73.4224 42.9335 62.1335 52.5335 52.5335C62.1335 42.9335 73.4224 35.3335 86.4002 29.7335C99.3779 24.1335 113.245 21.3335 128 21.3335C142.756 21.3335 156.622 24.1335 169.6 29.7335C182.578 35.3335 193.867 42.9335 203.467 52.5335C213.067 62.1335 220.667 73.4224 226.267 86.4002C231.867 99.3779 234.667 113.245 234.667 128C234.667 142.756 231.867 156.622 226.267 169.6C220.667 182.578 213.067 193.867 203.467 203.467C193.867 213.067 182.578 220.667 169.6 226.267C156.622 231.867 142.756 234.667 128 234.667Z" fill="#B2B2B2"/>
</svg>
