<svg width="256" height="256" viewBox="0 0 256 256" fill="none" xmlns="http://www.w3.org/2000/svg">
<path d="M128 234.667C113.245 234.667 99.3779 231.867 86.4002 226.267C73.4224 220.667 62.1335 213.067 52.5335 203.467C42.9335 193.867 35.3335 182.578 29.7335 169.6C24.1335 156.622 21.3335 142.756 21.3335 128C21.3335 113.245 24.1335 99.3779 29.7335 86.4002C35.3335 73.4224 42.9335 62.1335 52.5335 52.5335C62.1335 42.9335 73.4224 35.3335 86.4002 29.7335C99.3779 24.1335 113.245 21.3335 128 21.3335C142.756 21.3335 156.622 24.1335 169.6 29.7335C182.578 35.3335 193.867 42.9335 203.467 52.5335C213.067 62.1335 220.667 73.4224 226.267 86.4002C231.867 99.3779 234.667 113.245 234.667 128C234.667 142.756 231.867 156.622 226.267 169.6C220.667 182.578 213.067 193.867 203.467 203.467C193.867 213.067 182.578 220.667 169.6 226.267C156.622 231.867 142.756 234.667 128 234.667ZM79.4668 134.4L117.6 106.667L79.4668 78.9335L69.8668 91.7335L90.4002 106.667L69.8668 121.6L79.4668 134.4ZM112 181.867L128 165.867L144 181.867L160 165.867L170.4 176.267L181.6 165.067L160 143.467L144 159.467L128 143.467L112 159.467L96.0002 143.467L74.4002 165.067L85.6002 176.267L96.0002 165.867L112 181.867ZM176.533 134.4L186.133 121.6L165.6 106.667L186.133 91.7335L176.533 78.9335L138.4 106.667L176.533 134.4Z" fill="#B2B2B2"/>
</svg>
