<svg width="32" height="32" viewBox="0 0 32 32" fill="none" xmlns="http://www.w3.org/2000/svg">
<path d="M14.6001 16.9334L12.6667 15.0334C12.4223 14.7889 12.1167 14.6667 11.7501 14.6667C11.3834 14.6667 11.0667 14.8 10.8001 15.0667C10.5556 15.3111 10.4334 15.6223 10.4334 16C10.4334 16.3778 10.5556 16.6889 10.8001 16.9334L13.6667 19.8C13.9334 20.0667 14.2445 20.2 14.6001 20.2C14.9556 20.2 15.2667 20.0667 15.5334 19.8L21.2001 14.1334C21.4667 13.8667 21.5945 13.5556 21.5834 13.2C21.5723 12.8445 21.4445 12.5334 21.2001 12.2667C20.9334 12 20.6167 11.8611 20.2501 11.85C19.8834 11.8389 19.5667 11.9667 19.3001 12.2334L14.6001 16.9334ZM10.8667 29L8.93339 25.7334L5.26672 24.9334C4.93339 24.8667 4.66672 24.6945 4.46672 24.4167C4.26672 24.1389 4.18895 23.8334 4.23339 23.5L4.60006 19.7334L2.10006 16.8667C1.87783 16.6223 1.76672 16.3334 1.76672 16C1.76672 15.6667 1.87783 15.3778 2.10006 15.1334L4.60006 12.2667L4.23339 8.50004C4.18895 8.1667 4.26672 7.86115 4.46672 7.58337C4.66672 7.30559 4.93339 7.13337 5.26672 7.0667L8.93339 6.2667L10.8667 3.00004C11.0445 2.71115 11.2889 2.5167 11.6001 2.4167C11.9112 2.3167 12.2223 2.33337 12.5334 2.4667L16.0001 3.93337L19.4667 2.4667C19.7778 2.33337 20.0889 2.3167 20.4001 2.4167C20.7112 2.5167 20.9556 2.71115 21.1334 3.00004L23.0667 6.2667L26.7334 7.0667C27.0667 7.13337 27.3334 7.30559 27.5334 7.58337C27.7334 7.86115 27.8112 8.1667 27.7667 8.50004L27.4001 12.2667L29.9001 15.1334C30.1223 15.3778 30.2334 15.6667 30.2334 16C30.2334 16.3334 30.1223 16.6223 29.9001 16.8667L27.4001 19.7334L27.7667 23.5C27.8112 23.8334 27.7334 24.1389 27.5334 24.4167C27.3334 24.6945 27.0667 24.8667 26.7334 24.9334L23.0667 25.7334L21.1334 29C20.9556 29.2889 20.7112 29.4834 20.4001 29.5834C20.0889 29.6834 19.7778 29.6667 19.4667 29.5334L16.0001 28.0667L12.5334 29.5334C12.2223 29.6667 11.9112 29.6834 11.6001 29.5834C11.2889 29.4834 11.0445 29.2889 10.8667 29ZM12.6001 26.6L16.0001 25.1334L19.4667 26.6L21.3334 23.4L25.0001 22.5334L24.6667 18.8L27.1334 16L24.6667 13.1334L25.0001 9.40004L21.3334 8.60004L19.4001 5.40004L16.0001 6.8667L12.5334 5.40004L10.6667 8.60004L7.00006 9.40004L7.33339 13.1334L4.86672 16L7.33339 18.8L7.00006 22.6L10.6667 23.4L12.6001 26.6Z" fill="#F7D10C"/>
</svg>
